<?xml version="1.0" encoding="utf-8" ?>
<!-- Generator: Assembly 1.0 - http://assemblyapp.co -->
<svg version="1.1" xmlns="http://www.w3.org/2000/svg" xmlns:xlink="http://www.w3.org/1999/xlink" width="300" height="300" viewBox="0 0 300 300">
	<g id="widget" transform="matrix(1,0,0,1,150,150)">
		<path d="M-128.073,102.459 L-128.073,102.459 C-128.073,116.547 -116.547,128.073 -102.459,128.073 L102.459,128.073 C116.547,128.073 128.073,116.547 128.073,102.459 L128.073,102.459 C128.073,88.3707 116.547,76.844 102.459,76.844 L-102.459,76.844 C-116.547,76.844 -128.073,88.3707 -128.073,102.459 Z M-102.459,-25.6147 L102.459,-25.6147 C116.547,-25.6147 128.073,-14.0881 128.073,0 L128.073,0 C128.073,14.0881 116.547,25.6147 102.459,25.6147 L-102.459,25.6147 C-116.547,25.6147 -128.073,14.0881 -128.073,4.54747e-13 L-128.073,4.54747e-13 C-128.073,-14.0881 -116.547,-25.6147 -102.459,-25.6147 Z M-102.459,-128.073 L102.459,-128.073 C116.547,-128.073 128.073,-116.547 128.073,-102.459 L128.073,-102.459 C128.073,-88.3707 116.547,-76.844 102.459,-76.844 L-102.459,-76.844 C-116.547,-76.844 -128.073,-88.3707 -128.073,-102.459 L-128.073,-102.459 C-128.073,-116.547 -116.547,-128.073 -102.459,-128.073 Z" fill="white" fill-opacity="1" />
	</g>
</svg>