<?xml version="1.0" encoding="utf-8" ?>
<!-- Generator: Assembly 1.0 - http://assemblyapp.co -->
<svg version="1.1" xmlns="http://www.w3.org/2000/svg" xmlns:xlink="http://www.w3.org/1999/xlink" width="300" height="300" viewBox="0 0 300 300">
	<g id="widget" transform="matrix(1,0,0,1,150,150)">
		<path d="M118,0 C118,65.1696 65.1696,118 0,118 C-65.1696,118 -118,65.1696 -118,0 C-118,-65.1696 -65.1696,-118 0,-118 C65.1696,-118 118,-65.1696 118,0 Z" fill="#1e7f00" fill-opacity="1" />
		<path d="M116.112,0 C116.112,64.1269 64.1269,116.112 0,116.112 C-64.1269,116.112 -116.112,64.1269 -116.112,0 C-116.112,-64.1269 -64.1269,-116.112 0,-116.112 C64.1269,-116.112 116.112,-64.1269 116.112,0 Z" fill="#90c031" fill-opacity="1" />
		<path d="M112.572,0 C112.572,62.1718 62.1718,112.572 0,112.572 C-62.1718,112.572 -112.572,62.1718 -112.572,0 C-112.572,-62.1718 -62.1718,-112.572 0,-112.572 C62.1718,-112.572 112.572,-62.1718 112.572,0 Z" fill="#ffff8a" fill-opacity="1" />
		<path d="M-8.78796,49.5213 C-11.4006,51.1839 -12.8257,50.4714 -12.8257,47.3837 C-12.8257,44.2961 -14.0132,40.0208 -10.9256,35.0331 C-7.83791,30.0453 -6.41284,27.1952 -5.46279,25.0576 C-4.51274,22.9199 -4.51274,21.0198 -6.41284,23.6325 C-8.31294,26.2451 -11.6381,30.5203 -13.3007,33.133 C-14.9633,35.7456 -15.4383,33.133 -15.6758,29.3328 C-15.9133,25.5326 -17.3384,24.1075 -17.5759,26.2451 C-17.8134,28.6202 -17.8134,33.608 -18.2885,36.4582 C-18.7635,39.3083 -22.3262,41.6834 -24.4638,43.821 C-26.6014,46.1962 -31.1141,52.8465 -30.4016,48.5713 C-29.6891,44.2961 -30.1641,35.7456 -31.1141,39.0708 C-32.0642,42.1585 -33.0142,46.9087 -33.9643,51.1839 C-33.9643,51.6589 -36.3394,54.9841 -40.6146,57.5968 C-42.7522,58.7843 -48.6901,57.1217 -49.8776,58.3093 C-50.8277,59.2593 -53.4403,60.6844 -50.1151,60.4469 C-46.79,60.2094 -42.2772,60.4469 -43.4648,62.822 C-44.6523,65.1972 -45.8399,68.2848 -47.9775,71.3725 C-50.1151,74.4601 -51.5402,74.6977 -56.2905,76.5978 C-61.0407,78.2603 -60.3282,77.3103 -59.8531,73.5101 C-59.3781,69.7099 -60.8032,70.4224 -61.7532,74.2226 C-62.7033,78.0228 -65.5534,82.5356 -62.7033,81.5855 C-59.6156,80.6355 -51.7777,78.4979 -49.8776,78.2603 C-47.9775,77.7853 -47.9775,80.6355 -49.4026,85.3857 C-50.8277,90.136 -50.8277,94.6487 -48.9276,90.8485 C-47.0275,87.2858 -46.0774,81.5855 -44.8899,78.4979 C-43.7023,75.4102 -35.8644,73.2726 -32.7767,71.61 C-29.6891,70.1849 -29.9266,74.2226 -30.4016,77.7853 C-30.8766,81.348 -31.8267,87.2858 -36.3394,90.136 C-40.8521,92.9861 -45.1274,95.8363 -41.8022,95.3612 C-38.7145,94.6487 -30.6391,88.4734 -29.9266,91.561 C-28.9765,94.6487 -28.739,102.487 -27.3139,100.587 C-26.1264,98.6864 -26.6014,92.7486 -27.3139,88.2359 C-28.0265,83.7231 -25.6513,82.0605 -22.3262,79.9229 C-19.2385,77.7853 -17.5759,76.5978 -16.8634,79.6854 C-15.9133,82.7731 -13.7757,88.9484 -16.1508,93.2236 C-18.7635,97.7364 -22.8012,103.199 -19.951,101.299 C-17.1009,99.399 -13.7757,92.9861 -12.3506,94.6487 C-10.9256,96.3113 -4.51273,99.874 -7.36288,96.5488 C-9.97552,93.2236 -10.9256,91.7986 -12.5882,87.0483 C-14.0132,82.2981 -14.7258,76.8353 -13.3007,75.4102 C-12.1131,73.9851 -3.32517,65.9097 -5.46278,66.3847 C-7.6004,66.8598 -14.7258,73.7476 -14.9633,70.4224 C-15.2008,67.3348 -16.1508,62.1095 -14.2507,58.3093 C-12.3506,54.5091 -5.7003,50.9464 -4.98776,49.0463 C-4.27522,46.9087 -6.41284,47.8588 -8.78796,49.5213 Z M-30.8766,66.1472 C-31.1141,69.7099 -40.3771,71.135 -44.4148,73.5101 C-48.4525,75.8852 -42.0397,64.9596 -40.3771,61.872 C-38.7145,58.7843 -35.1518,56.8842 -32.5392,54.5091 C-29.4515,51.1839 -30.6391,62.5845 -30.8766,66.1472 Z M-17.3384,69.9474 C-17.5759,74.4601 -23.5137,76.5977 -26.3639,79.4479 C-29.214,82.5356 -27.5514,73.0351 -27.3139,69.4724 C-27.0764,66.3847 -22.3262,63.0595 -19.001,59.0218 C-14.9633,54.2716 -17.1009,65.4347 -17.3384,69.9474 Z M-16.8634,52.3715 C-18.526,55.2216 -25.4138,61.6345 -26.8389,63.297 C-28.264,64.9596 -28.264,61.872 -28.0265,57.3592 C-27.789,52.8465 -28.0265,52.3715 -26.6014,50.4714 C-25.1763,48.5713 -21.1386,44.5336 -18.526,41.2084 C-14.2507,35.9831 -15.6758,41.2084 -15.4383,45.9586 C-15.2008,45.9586 -15.2008,49.5213 -16.8634,52.3715 Z M61.7532,71.8475 C57.478,71.3725 55.8154,71.135 51.3027,68.7598 C47.0275,66.3847 42.7522,63.0595 42.5147,61.1595 C42.2772,59.2594 42.9898,47.3837 41.8022,49.2838 C40.6146,51.1839 40.3771,60.9219 38.002,58.7843 C35.6269,56.6467 31.1141,53.7966 29.9266,49.7589 C28.5015,45.7211 30.6391,38.3583 29.9266,36.6957 C29.214,35.0331 28.264,37.1707 27.5514,40.2584 C26.8389,43.346 25.1763,43.821 23.2762,41.6834 C21.1386,39.5458 17.1009,37.4082 15.9133,31.4704 C14.7258,25.7701 13.5382,22.6824 12.8257,20.5448 C12.1131,18.1697 10.4505,16.9821 10.9256,20.3073 C11.4006,23.395 12.1131,28.8578 12.8257,31.7079 C13.5382,34.7956 11.4006,33.133 8.55045,30.7579 C5.7003,28.1452 3.56269,28.1452 4.98776,30.0453 C6.41283,31.9454 10.213,35.5081 11.8756,37.6457 C13.5382,40.0208 12.5882,44.0586 12.8257,47.3837 C13.0632,50.4714 14.4883,58.3093 11.8756,54.9841 C9.26298,51.4214 3.08766,45.7211 4.75025,48.5713 C6.41284,51.4214 9.02547,55.4591 11.4006,59.0218 C11.6381,59.4969 12.3506,63.5346 11.1631,68.2848 C10.4505,70.6599 5.22527,73.7476 5.22527,75.1727 C5.22527,76.5978 4.27522,79.4479 6.65035,76.8353 C9.02547,74.2226 12.1131,71.3725 13.0632,73.7476 C13.7757,76.3602 15.4383,79.2104 15.9133,83.0106 C16.6259,86.5733 15.6758,87.9984 13.5382,92.5111 C11.4006,97.0238 11.1631,95.8363 8.78796,92.7486 C6.41284,89.6609 5.7003,91.3235 7.83791,94.6487 C9.97552,97.9739 10.9256,103.199 12.5882,100.587 C14.0132,97.9739 18.0509,90.8485 19.2385,89.1859 C20.1886,87.5233 22.3262,89.4234 24.4638,93.9362 C26.8389,98.2114 29.9266,101.537 28.739,97.4989 C27.5514,93.4611 24.2263,88.9484 22.8012,85.8607 C21.3761,82.7731 25.4138,75.6477 26.6014,72.3225 C27.789,68.9974 30.4016,72.085 32.5392,74.9352 C34.9143,77.7853 38.2395,82.7731 37.0519,87.9984 C35.8644,93.2236 34.9143,98.2114 36.8144,95.5988 C38.7145,92.9861 39.9021,83.0106 42.5147,84.4357 C45.1274,85.8607 51.0652,91.3235 50.5902,88.9484 C50.1151,86.5733 45.3649,83.0106 41.8022,80.1604 C38.2395,77.5478 38.7145,74.6977 39.4271,70.8975 C40.1396,67.0973 40.3771,65.1972 43.2273,66.8597 C46.0774,68.5223 52.0152,71.135 53.4403,76.1227 C54.8654,81.1105 55.8154,87.9984 56.528,84.6732 C57.2405,81.348 55.1029,74.4601 57.2405,74.4601 C59.1406,74.2226 66.0285,72.3225 61.7532,71.8475 Z M19.476,82.0605 C18.2885,86.5733 15.2008,74.4601 14.0132,70.8974 C13.0632,67.3348 14.2507,63.7721 14.2507,59.9719 C14.2507,55.6967 21.3761,64.7221 23.7512,67.3348 C26.3639,70.1849 20.6636,77.5478 19.476,82.0605 Z M19.476,59.2593 C16.3884,55.9342 15.9133,55.6967 15.6758,53.3215 C15.4383,50.9464 15.4383,45.2461 14.9633,41.2084 C14.2507,34.3205 16.8634,39.3083 20.4261,42.1584 C20.4261,42.1584 23.0387,44.5336 23.9888,47.6212 C24.7013,50.7089 24.4638,60.2094 24.7013,62.347 C24.7013,64.7221 22.5637,62.5845 19.476,59.2593 Z M36.3394,73.7476 C36.5769,77.7853 31.1141,69.9474 28.739,67.3348 C26.8389,64.9596 27.789,59.2593 27.3139,54.0341 C26.8389,47.8587 33.0142,57.3592 36.1019,60.6844 C38.952,64.0096 36.3394,69.7099 36.3394,73.7476 Z M94.2924,7.71915 C90.9673,5.58154 89.5422,6.29408 92.3923,8.6692 C95.48,11.0443 96.6676,11.2818 92.1548,13.4194 C87.6421,15.5571 86.217,16.2696 82.6543,15.7946 C79.0916,15.082 76.004,13.657 73.3913,12.9444 C70.7787,12.2319 73.8664,8.90671 76.479,6.53159 C79.0916,4.15646 76.2415,5.10651 74.8164,5.10651 C73.3913,5.10651 70.3037,10.5693 67.9285,11.0443 C63.1783,12.2319 59.1406,11.5193 58.6656,11.2818 C55.1029,8.90671 51.0652,6.29408 48.215,4.63149 C45.3649,2.9689 51.0652,9.38174 54.6279,11.7569 C58.1905,14.3695 50.3526,12.7069 47.0275,12.7069 C43.9398,12.4694 39.6646,13.4194 37.2894,11.7569 C34.9143,10.0943 31.3516,6.53159 29.689,4.869 C27.7889,3.44393 27.7889,5.58154 30.4016,8.43169 C33.0142,11.2818 34.4393,13.4194 31.3516,12.7069 C28.264,11.9944 23.0387,11.2818 19.951,10.8068 C16.8634,10.3318 18.0509,11.7569 20.1885,12.7069 C22.5637,13.4194 25.4138,14.607 31.1141,15.7946 C36.8144,16.9821 39.1895,21.0198 41.3272,23.1575 C43.4648,25.2951 42.9897,26.9577 39.9021,27.4327 C36.8144,28.1452 34.6768,28.8578 36.3394,29.8078 C38.002,30.5203 45.1274,28.3827 49.4026,29.8078 C53.4403,31.2329 56.2904,35.5081 58.4281,37.8832 C60.5657,40.2584 50.8277,40.4959 48.9276,41.6834 C47.0275,42.871 58.9031,42.396 60.8032,42.396 C62.7033,42.6335 66.266,46.6712 68.4036,51.1839 C70.7787,55.4591 71.0162,57.3593 71.4912,61.6345 C71.9663,65.9097 73.8664,59.0218 73.6288,56.8842 C73.3913,54.5091 80.5167,56.6467 83.8419,56.1717 C87.1671,55.4591 80.2792,54.5091 75.2914,53.084 C70.3037,51.659 67.691,45.9587 66.0284,42.871 C64.3659,40.0208 66.266,39.7833 70.0662,39.0708 C73.8664,38.3583 76.7165,37.8832 79.3291,41.4459 C81.9418,45.0086 85.742,49.7589 88.1171,50.2339 C90.4922,50.7089 85.0294,44.7711 83.6044,42.1585 C82.1793,39.5458 92.1548,38.1207 94.7675,36.4582 C97.3801,34.5581 92.3923,35.5081 87.1671,36.6957 C81.9418,37.8832 76.954,34.3205 74.1039,32.1829 C71.2537,29.8078 68.1661,27.4327 71.4912,26.2451 C74.8164,25.0576 81.7043,21.0198 85.0294,22.4449 C88.1171,23.87 92.6298,27.1952 96.6676,28.3827 C100.705,29.5703 97.3801,26.4826 93.1049,24.1075 C88.8296,21.7324 86.692,19.8323 88.3546,18.8822 C90.0172,17.9322 97.1426,13.657 99.7552,12.2319 C102.843,10.8068 97.6176,9.85676 94.2924,7.71915 Z M47.5025,24.345 C44.4148,23.6325 42.0397,20.7823 42.0397,20.7823 C38.952,17.2196 34.2018,14.3695 41.0897,15.3195 C45.1274,15.7946 50.8277,15.7946 53.2028,16.0321 C55.5779,16.2696 55.8154,16.7446 59.1406,19.8323 C62.4658,22.9199 64.6034,25.0576 62.4658,25.0576 C60.0907,24.82 50.5902,25.0576 47.5025,24.345 Z M73.3913,36.6957 C69.3536,36.4581 63.6533,39.3083 60.3282,36.2206 C57.003,33.133 47.5025,26.9577 53.6778,27.4327 C58.9031,27.9077 64.6034,26.9577 66.9785,28.8578 C69.8287,31.4704 77.4291,36.9332 73.3913,36.6957 Z M81.9418,19.8323 C77.4291,21.0198 70.0662,26.7201 67.216,24.1075 C64.6034,21.7324 55.5779,14.607 59.8531,14.607 C63.4158,14.607 67.216,13.1819 70.7787,14.3695 C74.1039,15.3195 86.4545,18.6447 81.9418,19.8323 Z M-25.4138,5.10651 C-27.5514,6.05656 -30.6391,7.48163 -35.3894,10.5693 C-40.3771,13.657 -44.8899,12.4694 -47.74,12.4694 C-50.8277,12.4694 -51.5402,11.0443 -49.8776,8.43168 C-48.215,5.81905 -47.265,3.68143 -48.9276,4.39397 C-50.5901,5.10651 -54.1528,11.7569 -58.1905,13.657 C-61.9907,15.5571 -67.216,14.607 -70.3037,14.3695 C-73.3913,14.132 -66.741,7.00661 -66.266,4.869 C-65.7909,2.73138 -73.6289,11.5193 -75.2914,12.7069 C-76.7165,13.8945 -82.1793,13.4194 -86.9296,11.9944 C-91.6798,10.5693 -93.1049,9.61925 -96.4301,6.7691 C-99.7552,4.15646 -96.1925,10.3318 -94.53,11.7569 C-92.8674,13.1819 -99.2802,16.7446 -101.18,19.3573 C-103.08,22.2074 -97.6176,18.1697 -93.1049,15.5571 C-88.5921,12.9444 -82.6543,15.3195 -79.5667,16.2696 C-76.479,17.2196 -77.6666,18.6447 -79.8042,21.7324 C-81.9418,24.82 -83.6044,27.1952 -88.1171,26.7201 C-92.6299,26.0076 -98.5677,25.5326 -100.468,26.7201 C-102.368,27.9077 -94.53,28.3827 -91.4423,29.3328 C-88.3546,30.2828 -94.53,38.1207 -95.2425,41.2084 C-95.955,44.2961 -92.8674,40.2583 -90.0172,35.7456 C-87.1671,31.2329 -81.2293,30.2828 -77.6666,29.8078 C-74.1039,29.3328 -70.0662,28.8577 -71.4912,32.1829 C-72.9163,35.2706 -75.0539,43.1085 -78.3791,44.2961 C-81.4668,45.4836 -87.1671,46.4337 -90.7297,48.3338 C-94.2924,50.2339 -89.7797,50.2339 -85.267,48.8088 C-80.5167,47.3837 -77.9041,47.3837 -78.1416,49.2838 C-78.6166,51.1839 -80.7542,59.0218 -81.4668,62.1095 C-82.4168,65.1972 -77.9041,62.1095 -74.1039,61.1594 C-70.3037,60.2094 -69.5911,58.7843 -73.3913,59.2593 C-77.1915,59.7344 -78.3791,60.2094 -76.479,55.6967 C-74.8164,50.9464 -74.3414,49.5213 -71.2537,47.3837 C-68.1661,45.2461 -65.0784,44.2961 -62.7033,42.871 C-60.3282,41.6834 -60.0906,45.9586 -60.3282,49.5213 C-60.5657,52.8465 -59.3781,50.4714 -58.1905,49.2838 C-57.2405,48.3338 -58.9031,42.1584 -57.478,40.0208 C-54.8654,35.7456 -51.7777,33.608 -51.0652,33.3705 C-46.79,32.4204 -42.0397,31.4704 -38.952,30.5203 C-35.8644,29.5703 -44.1773,29.3328 -48.4525,29.8078 C-52.7278,30.5203 -46.0774,26.0076 -43.7023,23.87 C-41.3272,21.7324 -38.952,18.1697 -36.3394,17.6947 C-33.4893,17.2196 -28.5015,17.2196 -26.1264,16.9821 C-23.7512,16.7446 -25.1763,15.3195 -29.214,15.082 C-33.0142,14.8445 -35.6269,14.3695 -33.0142,12.7069 C-30.4016,11.0443 -26.1264,7.71914 -23.5137,5.81904 C-21.3761,4.15646 -23.2762,3.91895 -25.4138,5.10651 Z M-79.8042,26.0076 C-76.7165,23.1575 -74.5789,17.2196 -70.3037,16.9821 C-65.7909,16.7446 -54.6279,14.607 -59.3781,18.4072 C-63.4158,21.7324 -66.741,26.4826 -69.8287,26.7201 C-73.3913,27.1952 -82.8918,28.8578 -79.8042,26.0076 Z M-54.6279,31.9454 C-57.2405,34.558 -58.9031,38.1207 -61.9907,39.7833 C-65.0784,41.4459 -76.004,47.8587 -73.6289,43.821 C-71.2537,39.7833 -70.0662,30.5203 -66.266,30.2828 C-62.9408,30.2828 -51.7777,28.8578 -54.6279,31.9454 Z M-41.5647,18.1697 C-44.6523,20.7823 -48.9276,24.82 -50.8277,26.2451 C-52.7278,27.6702 -53.2028,27.4327 -57.7155,27.6702 C-62.2283,27.9077 -65.3159,27.9077 -63.6533,26.4826 C-61.9907,25.0576 -55.5779,18.1697 -52.7278,16.5071 C-49.8776,14.8445 -46.3149,15.082 -46.3149,15.082 C-41.5647,15.3195 -36.3394,13.8945 -41.5647,18.1697 Z M23.7512,-43.8211 C25.8889,-46.1962 30.4016,-52.8465 29.6891,-48.5713 C28.9765,-44.2961 29.4515,-35.7456 30.4016,-39.0708 C31.3516,-42.1585 32.3017,-46.9087 33.2517,-51.1839 C33.2517,-51.659 35.6269,-54.9841 39.9021,-57.5968 C42.0397,-58.7843 47.9775,-57.1217 49.1651,-58.3093 C50.1151,-59.2594 52.7278,-60.6844 49.4026,-60.4469 C46.0774,-60.2094 41.5647,-60.4469 42.7522,-62.822 C43.9398,-65.1972 45.1274,-68.2848 47.265,-71.3725 C49.4026,-74.4602 50.8277,-74.6977 55.5779,-76.5978 C60.3282,-78.2604 59.6156,-77.3103 59.1406,-73.5101 C58.6656,-69.7099 60.0907,-70.4224 61.0407,-74.2226 C61.9908,-78.0228 64.8409,-82.5356 61.9908,-81.5855 C58.9031,-80.6355 51.0652,-78.4979 49.1651,-78.2604 C47.265,-77.7853 47.265,-80.6355 48.6901,-85.3857 C50.1151,-90.136 50.1151,-94.6487 48.215,-90.8485 C46.3149,-87.2858 45.3649,-81.5855 44.1773,-78.4979 C42.9898,-75.4102 35.1518,-73.2726 32.0642,-71.61 C28.9765,-70.1849 29.214,-74.2226 29.6891,-77.7853 C30.1641,-81.348 31.1141,-87.2858 35.6269,-90.136 C40.1396,-92.9861 44.4148,-95.8363 41.0897,-95.3612 C38.002,-94.6487 29.9266,-88.4734 29.214,-91.5611 C28.264,-94.6487 28.0265,-102.487 26.6014,-100.587 C25.4138,-98.6864 25.8889,-92.7486 26.6014,-88.2359 C27.3139,-83.7231 24.9388,-82.0606 21.6136,-79.9229 C18.526,-77.7853 16.8634,-76.5978 16.1508,-79.6854 C15.2008,-82.7731 13.0632,-88.9484 15.4383,-93.2236 C18.0509,-97.7364 22.0887,-103.199 19.2385,-101.299 C16.6259,-98.9239 13.0632,-92.5111 11.6381,-94.4112 C10.213,-96.0738 3.8002,-99.6365 6.65035,-96.3113 C9.26299,-92.9861 10.213,-91.5611 11.8756,-86.8108 C13.3007,-82.0606 13.7757,-76.5978 12.5882,-75.1727 C11.4006,-73.7476 2.61264,-65.6722 4.75025,-66.1472 C6.88786,-66.6222 14.0132,-73.5101 14.2507,-70.1849 C14.4883,-67.0973 15.4383,-61.872 13.5382,-58.0718 C11.6381,-54.2716 4.98776,-50.7089 4.27523,-48.8088 C3.56269,-47.1462 5.7003,-47.8588 8.31294,-49.7589 C10.9256,-51.4214 12.3506,-50.7089 12.3506,-47.6212 C12.3506,-44.5336 13.5382,-40.2584 10.4505,-35.2706 C7.36289,-30.2828 5.93781,-27.4327 4.98776,-25.2951 C3.8002,-23.1575 4.03771,-21.2574 5.93781,-23.87 C7.83791,-26.4826 11.1631,-30.7579 12.8257,-33.3705 C14.4883,-35.9831 14.9633,-33.3705 15.2008,-29.5703 C15.4383,-25.7701 16.8634,-24.345 17.1009,-26.4826 C17.3384,-28.8578 17.3384,-33.8455 17.8134,-36.6957 C18.0509,-39.3083 21.6136,-41.6834 23.7512,-43.8211 Z M30.1641,-66.3847 C30.4016,-69.9474 39.6646,-71.3725 43.7023,-73.7476 C47.74,-76.1227 41.3272,-65.1972 39.6646,-62.1095 C38.002,-59.0218 34.4393,-57.1217 31.8267,-54.7466 C28.739,-51.4215 29.9266,-62.822 30.1641,-66.3847 Z M16.6259,-69.9474 C16.8634,-74.4602 22.8012,-76.5978 25.6513,-79.4479 C28.5015,-82.5356 26.8389,-73.0351 26.6014,-69.4724 C26.3639,-66.3847 21.6136,-63.0596 18.2885,-59.0219 C14.2507,-54.2716 16.6259,-65.4347 16.6259,-69.9474 Z M17.8134,-41.4459 C13.5382,-36.2207 14.9633,-41.4459 14.7258,-46.1962 C14.7258,-46.1962 14.4883,-49.7589 16.1508,-52.609 C17.8134,-55.4592 24.7013,-61.872 26.1264,-63.5346 C27.5514,-65.1972 27.5514,-62.1095 27.3139,-57.5968 C27.0764,-53.084 27.3139,-52.609 25.8889,-50.7089 C24.4638,-48.5713 20.4261,-44.5336 17.8134,-41.4459 Z M-11.8756,-59.0219 C-12.1131,-59.4969 -12.8257,-63.5346 -11.6381,-68.2848 C-10.9256,-70.66 -5.7003,-73.7476 -5.7003,-75.1727 C-5.7003,-76.5978 -4.75025,-79.4479 -7.12537,-76.8353 C-9.5005,-74.2227 -12.8257,-71.3725 -13.5382,-73.7476 C-14.2507,-76.3603 -15.9133,-79.2104 -16.3884,-83.0106 C-17.1009,-86.5733 -16.1508,-87.9984 -14.0132,-92.5111 C-11.8756,-97.0238 -11.6381,-95.8363 -9.26298,-92.7486 C-6.88786,-89.661 -6.17532,-91.3235 -8.31293,-94.6487 C-10.4505,-97.9739 -11.4006,-103.199 -13.0632,-100.587 C-14.4883,-97.9739 -18.7635,-90.8485 -19.7135,-89.1859 C-20.6636,-87.5233 -22.8012,-89.4234 -24.9388,-93.9362 C-27.3139,-98.2114 -30.4016,-101.537 -29.214,-97.4989 C-28.0265,-93.4612 -24.7013,-88.9484 -23.2762,-85.8608 C-21.8511,-82.7731 -25.8889,-75.6477 -27.0764,-72.3225 C-28.264,-68.9974 -30.8766,-72.085 -33.0142,-74.9352 C-35.3894,-77.7853 -38.7145,-82.7731 -37.527,-87.9984 C-36.3394,-93.2236 -35.3894,-98.2114 -37.2895,-95.5988 C-39.1896,-92.9861 -40.3771,-83.0106 -42.9897,-84.4357 C-45.6024,-85.8608 -51.5402,-91.3235 -51.0652,-88.9484 C-50.5901,-86.5733 -45.8399,-83.0106 -42.2772,-80.1605 C-38.7145,-77.5478 -39.1896,-74.4602 -39.9021,-70.8975 C-40.6146,-67.0973 -40.8521,-65.1972 -43.7023,-66.8598 C-46.5524,-68.5223 -52.4903,-71.135 -53.9153,-76.1228 C-55.3404,-81.1105 -56.2904,-87.9984 -57.003,-84.6732 C-57.7155,-81.348 -55.5779,-74.4602 -57.7155,-74.4602 C-60.0906,-74.6977 -66.741,-72.5601 -62.4658,-72.3225 C-58.1905,-71.8475 -56.528,-71.61 -52.0152,-69.2349 C-47.74,-66.8598 -43.4648,-63.5346 -43.2273,-61.6345 C-42.9897,-59.7344 -43.7023,-47.8588 -42.5147,-49.7589 C-41.3272,-51.659 -41.0897,-61.397 -38.7145,-59.2594 C-36.3394,-57.1217 -31.8267,-54.2716 -30.6391,-50.2339 C-29.214,-46.1962 -31.3516,-38.8333 -30.6391,-37.1707 C-29.9266,-35.5081 -28.9765,-37.6457 -28.264,-40.7334 C-27.5514,-43.8211 -25.8889,-44.2961 -23.9888,-42.1585 C-21.8511,-40.0209 -17.8134,-37.8832 -16.6259,-31.9454 C-15.4383,-26.2451 -14.2507,-23.1575 -13.5382,-21.0199 C-12.8257,-18.6447 -11.1631,-17.4572 -11.6381,-20.7823 C-12.1131,-23.87 -12.8257,-29.3328 -13.5382,-32.1829 C-14.2507,-35.2706 -12.1131,-33.608 -9.26298,-31.2329 C-6.41283,-28.6203 -4.27522,-28.6203 -5.7003,-30.5204 C-7.12537,-32.4205 -10.9256,-35.9831 -12.5882,-38.1208 C-14.2507,-40.4959 -13.3007,-44.5336 -13.5382,-47.8588 C-13.7757,-50.9464 -15.2008,-58.7843 -12.5882,-55.4592 C-9.97552,-51.8965 -3.8002,-46.1962 -5.46279,-49.0463 C-6.88786,-51.4215 -9.26299,-55.4592 -11.8756,-59.0219 Z M-36.5769,-60.6844 C-39.6646,-64.0096 -36.8144,-69.7099 -37.0519,-73.7476 C-37.2895,-77.7853 -31.8267,-69.9474 -29.4515,-67.3348 C-27.5514,-64.9597 -28.5015,-59.2594 -28.0265,-54.0341 C-27.3139,-47.8588 -33.7268,-57.3593 -36.5769,-60.6844 Z M-21.3761,-42.396 C-21.3761,-42.396 -23.9888,-44.7711 -24.9388,-47.8588 C-25.6513,-50.9464 -25.4138,-60.4469 -25.6513,-62.5845 C-25.8889,-64.9597 -23.5137,-62.5845 -20.4261,-59.2594 C-17.3384,-55.9342 -16.8634,-55.6967 -16.6259,-53.3216 C-16.3884,-50.9464 -16.3884,-45.2461 -15.9133,-41.2084 C-14.9633,-34.5581 -17.5759,-39.3083 -21.3761,-42.396 Z M-15.2008,-60.2094 C-15.2008,-55.9342 -22.3262,-64.9597 -24.7013,-67.5723 C-27.0764,-70.1849 -21.6136,-77.7853 -20.4261,-82.2981 C-19.2385,-86.8108 -16.1508,-74.6977 -14.9633,-71.135 C-13.7757,-67.5723 -15.2008,-63.7721 -15.2008,-60.2094 Z M-20.9011,-13.182 C-23.2762,-13.8945 -26.1264,-15.0821 -31.8267,-16.2696 C-37.527,-17.4572 -39.9021,-21.4949 -42.0397,-23.6325 C-44.1773,-25.7701 -43.7023,-27.4327 -40.6146,-27.9077 C-37.527,-28.6203 -35.3893,-29.3328 -37.0519,-30.2828 C-38.7145,-30.9954 -45.8399,-28.8578 -50.1151,-30.2828 C-54.1528,-31.7079 -57.003,-35.9831 -59.1406,-38.3583 C-61.2782,-40.7334 -51.5402,-40.9709 -49.6401,-42.1585 C-47.74,-43.346 -59.6156,-42.871 -61.5157,-42.871 C-63.4158,-43.1085 -66.9785,-47.1462 -69.1161,-51.659 C-71.4912,-55.9342 -71.7288,-57.8343 -72.2038,-62.1095 C-72.6788,-66.3847 -74.5789,-59.4969 -74.3414,-57.1218 C-74.1039,-54.7466 -81.2293,-56.8842 -84.5544,-56.4092 C-87.8796,-55.6967 -80.9917,-54.7466 -76.004,-53.3216 C-71.0162,-51.8965 -68.4036,-46.1962 -66.741,-43.1085 C-65.0784,-40.2584 -66.9785,-40.0209 -70.7787,-39.3083 C-74.5789,-38.5958 -77.4291,-38.1208 -80.0417,-41.6834 C-82.6543,-45.2461 -86.4545,-49.9964 -88.8296,-50.4714 C-91.2048,-50.9464 -85.742,-45.0086 -84.3169,-42.396 C-82.8918,-39.7833 -92.8674,-38.3583 -95.48,-36.6957 C-98.0926,-34.7956 -93.1049,-35.7456 -87.8796,-36.9332 C-82.6543,-38.1208 -77.6666,-34.5581 -74.8164,-32.4205 C-71.9663,-30.0453 -68.8786,-27.6702 -72.2038,-26.4826 C-75.529,-25.2951 -82.4168,-21.2574 -85.742,-22.6824 C-88.8296,-24.1075 -93.3424,-27.4327 -97.3801,-28.6203 C-101.418,-29.8078 -98.0926,-26.7202 -93.8174,-24.345 C-89.5422,-21.9699 -87.4046,-20.0698 -89.0672,-19.1198 C-90.7297,-18.1697 -97.8551,-13.8945 -100.468,-12.4694 C-103.08,-11.0443 -97.8551,-9.85678 -94.53,-7.71917 C-91.2048,-5.58155 -89.7797,-6.29409 -92.6299,-8.66922 C-95.7175,-11.0443 -96.9051,-11.2819 -92.3923,-13.4195 C-87.8796,-15.5571 -86.4545,-16.2696 -82.8918,-15.7946 C-79.3292,-15.0821 -76.2415,-13.657 -73.6289,-12.9444 C-71.0162,-12.2319 -74.1039,-8.90673 -76.7165,-6.5316 C-79.3292,-4.15648 -76.479,-5.10653 -75.0539,-5.10653 C-73.6289,-5.10653 -70.5412,-10.5693 -68.1661,-11.0443 C-63.4158,-12.2319 -59.3781,-11.5194 -58.9031,-11.2819 C-55.3404,-8.90673 -51.3027,-6.29409 -48.4525,-4.6315 C-45.6024,-2.96892 -51.3027,-9.38175 -54.8654,-11.7569 C-58.4281,-14.3695 -50.5901,-12.7069 -47.265,-12.7069 C-44.1773,-12.4694 -39.9021,-13.4195 -37.527,-11.7569 C-35.1518,-10.0943 -31.5892,-6.5316 -29.9266,-4.86902 C-28.5015,-3.68145 -28.5015,-5.81906 -30.8766,-8.66921 C-33.4893,-11.5194 -34.9143,-13.657 -31.8267,-12.9444 C-28.739,-12.2319 -23.5137,-11.5194 -20.4261,-11.0443 C-17.3384,-10.8068 -18.526,-12.4694 -20.9011,-13.182 Z M-74.1039,-36.9332 C-70.0662,-36.6957 -64.3659,-39.5458 -61.0407,-36.4582 C-57.7155,-33.3705 -48.215,-27.1952 -54.3904,-27.6702 C-59.6156,-28.1452 -65.3159,-27.1952 -67.691,-29.0953 C-70.3037,-31.4704 -78.1416,-36.9332 -74.1039,-36.9332 Z M-60.5657,-14.8445 C-64.1284,-14.8445 -67.9286,-13.4195 -71.4912,-14.607 C-75.0539,-15.5571 -87.1671,-18.8822 -82.6543,-20.0698 C-78.1416,-21.2574 -70.7787,-26.9577 -67.9286,-24.345 C-65.3159,-21.9699 -56.2904,-14.8445 -60.5657,-14.8445 Z M-41.5647,-15.3196 C-45.6024,-15.7946 -51.3027,-15.7946 -53.6778,-16.0321 C-56.0529,-16.2696 -56.2904,-16.7446 -59.6156,-19.8323 C-62.9408,-22.92 -65.0784,-25.0576 -62.9408,-25.0576 C-60.5657,-24.8201 -51.3027,-25.2951 -48.215,-24.345 C-45.1274,-23.6325 -42.5147,-20.7823 -42.5147,-20.7823 C-39.6646,-17.4572 -34.6768,-14.607 -41.5647,-15.3196 Z M92.3923,-15.7946 C87.8796,-13.1819 81.9418,-15.5571 78.8541,-16.5071 C75.7665,-17.4572 76.954,-18.8822 79.0916,-21.9699 C81.2293,-25.0576 82.8918,-27.4327 87.4046,-26.9577 C91.9173,-26.2451 97.8551,-25.7701 99.7552,-26.9577 C101.655,-28.1452 93.8174,-28.6203 90.7298,-29.5703 C87.6421,-30.5204 93.8174,-38.3583 94.53,-41.4459 C95.2425,-44.5336 92.1548,-40.4959 89.3047,-35.9831 C86.4545,-31.4704 80.5167,-30.5204 76.954,-30.0453 C73.3913,-29.5703 69.3536,-29.0953 70.7787,-32.4205 C72.2038,-35.5081 74.3414,-43.346 77.6666,-44.5336 C80.7542,-45.7212 86.4545,-46.6712 90.0172,-48.5713 C93.5799,-50.4714 89.0672,-50.4714 84.5544,-49.0463 C79.8042,-47.6213 77.1916,-47.6213 77.4291,-49.5214 C77.9041,-51.4215 80.0417,-59.2594 80.7542,-62.347 C81.7043,-65.4347 77.1916,-62.347 73.3913,-61.397 C69.5912,-60.4469 68.8786,-59.0219 72.6788,-59.4969 C76.479,-59.9719 77.6666,-60.4469 75.7665,-55.9342 C74.1039,-51.1839 73.6289,-49.7589 70.5412,-47.6213 C67.4535,-45.4836 64.3659,-44.5336 61.9908,-43.1085 C59.6156,-41.921 59.3781,-46.1962 59.6156,-49.7589 C59.8531,-53.084 58.6656,-50.7089 57.478,-49.5214 C56.528,-48.5713 58.1906,-42.396 56.7655,-40.2584 C54.1528,-35.9831 51.0652,-33.8455 50.3526,-33.608 C46.0774,-32.658 41.3272,-31.7079 38.2395,-30.7579 C35.1518,-29.8078 43.4648,-29.5703 47.74,-30.0453 C52.0152,-30.7579 45.3649,-26.2451 42.9898,-24.1075 C40.6146,-21.9699 38.2395,-18.4072 35.6269,-17.9322 C32.7767,-17.4572 27.789,-17.4572 25.4138,-17.2197 C23.0387,-16.9821 24.4638,-15.5571 28.5015,-15.3196 C32.3017,-15.082 34.9143,-14.607 32.3017,-12.9444 C29.6891,-11.2818 25.4138,-7.95667 22.8012,-6.05657 C20.1886,-4.15648 22.0887,-3.91896 24.2263,-5.10652 C26.3639,-6.05657 29.4515,-7.48165 34.2018,-10.5693 C39.1896,-13.657 43.7023,-12.4694 46.5524,-12.4694 C49.6401,-12.4694 50.3526,-11.0443 48.6901,-8.4317 C47.0275,-5.81906 46.0774,-3.68145 47.74,-4.39399 C49.4026,-5.10652 52.9653,-11.7569 57.003,-13.657 C60.8032,-15.5571 66.0285,-14.607 69.1161,-14.3695 C72.2038,-14.132 65.5534,-7.00662 65.0784,-4.86901 C64.6034,-2.7314 72.4413,-11.5194 74.1039,-12.7069 C75.529,-13.8945 80.9917,-13.4195 85.742,-11.9944 C90.4922,-10.5693 91.9173,-9.61926 95.2425,-6.76911 C98.5677,-4.15647 95.005,-10.3318 93.3424,-11.7569 C91.6798,-13.1819 98.0926,-16.7446 99.9927,-19.3573 C102.368,-22.4449 96.9051,-18.4072 92.3923,-15.7946 Z M53.9153,-32.1829 C56.528,-34.7956 58.1905,-38.3583 61.2782,-40.0209 C64.3659,-41.6834 75.2914,-48.0963 72.9163,-44.0586 C70.5412,-40.0209 69.3536,-30.7579 65.5534,-30.5204 C62.2283,-30.2828 51.0652,-29.0953 53.9153,-32.1829 Z M52.0152,-16.5071 C49.1651,-14.8445 45.6024,-15.082 45.6024,-15.082 C40.8521,-15.5571 35.6269,-14.132 40.8521,-18.1697 C43.9398,-20.7823 48.215,-24.8201 50.1151,-26.2451 C52.0152,-27.6702 52.4903,-27.4327 57.003,-27.6702 C61.5157,-27.9077 64.6034,-27.9077 62.9408,-26.4826 C61.2782,-25.0576 54.8654,-18.1697 52.0152,-16.5071 Z M69.5912,-17.2197 C65.0784,-16.9821 53.9153,-14.8445 58.6656,-18.6447 C62.7033,-21.9699 66.0285,-26.7202 69.1161,-26.9577 C72.6788,-27.1952 82.1793,-28.8578 79.0917,-26.0076 C76.2415,-23.395 74.1039,-17.4572 69.5912,-17.2197 Z" fill="green" fill-opacity="1" >
			<animateTransform id="half" attributeName="transform" attributeType="XML" type="rotate" from="0 0 0" to="360 0 0" dur="1s" begin="5s;half.end+5s" repeatCount="3"/>
    </path>
	</g>
</svg>