<?xml version="1.0" encoding="utf-8" ?>
<!-- Generator: Assembly 1.0 - http://assemblyapp.co -->
<svg version="1.1" xmlns="http://www.w3.org/2000/svg" xmlns:xlink="http://www.w3.org/1999/xlink" width="300" height="300" viewBox="0 0 300 300">
	<g id="widget" transform="matrix(1,0,0,1,150,150)">
		
		<path d="M-20.9521,41.3222 L-20.9521,-21.5341 L-20.9521,-70.4224 C-20.9521,-75.9514 -25.3171,-80.3164 -30.8462,-80.3164 L-69.5494,-80.3164 C-69.8404,-80.3164 -70.1314,-80.3164 -70.4224,-80.3164 C-70.7134,-80.3164 -71.2954,-80.3164 -71.5864,-80.3164 L-80.6074,-80.3164 C-86.7185,-80.3164 -90.2105,-75.9514 -91.9565,-70.4224 L-106.216,-21.8251 L-106.216,-21.8251 L-134.734,-21.8251 C-139.39,-21.8251 -143.173,-18.6241 -143.173,-14.2591 L-143.173,43.9412 C-143.173,48.0153 -139.39,51.5073 -134.734,51.5073 L-69.5494,51.5073 L-68.6764,51.5073 L-46.8513,51.5073 L-30.8462,51.5073 L145.501,51.5073 L145.501,41.3222 L-20.9521,41.3222 Z" fill="#ffc41d" fill-opacity="1" />
		
		<path d="M-29.1002,-69.2584 C-30.5552,-71.0044 -32.8832,-72.1684 -35.5022,-72.1684 L-75.6604,-72.1684 C-80.6075,-72.1684 -83.5175,-68.6764 -84.9725,-64.0204 L-96.6125,-24.7351 L-90.2105,-24.7351 L-82.0625,-24.7351 L-79.4434,-24.7351 L-75.6604,-24.7351 L-61.4013,-24.7351 L-53.5443,-24.7351 L-27.6452,-24.7351 L-27.6452,-60.2373 L-27.6452,-64.3114 C-27.3542,-66.0574 -27.9362,-67.8034 -29.1002,-69.2584 Z" fill="#153a50" fill-opacity="1" />



		<path d="M-57.3273,51.5073 C-57.3273,67.4181 -70.2256,80.3164 -86.1365,80.3164 C-102.047,80.3164 -114.946,67.4181 -114.946,51.5073 C-114.946,35.5964 -102.047,22.6981 -86.1365,22.6981 C-70.2256,22.6981 -57.3273,35.5964 -57.3273,51.5073 Z" fill="#273438" fill-opacity="1" />

		<path d="M-67.8034,51.5073 C-67.8034,61.6324 -76.0114,69.8404 -86.1365,69.8404 C-96.2616,69.8404 -104.47,61.6324 -104.47,51.5073 C-104.47,41.3822 -96.2616,33.1742 -86.1365,33.1742 C-76.0114,33.1742 -67.8034,41.3822 -67.8034,51.5073 Z" fill="#ededed" fill-opacity="1" />


		
		
		
		
		<path d="M145.501,31.1372 C145.501,36.6662 141.136,41.3222 135.607,41.3222 L-1.36231e-06,41.3222 C-5.52903,41.3222 -9.89406,36.6662 -9.89406,31.1372 L-9.89406,-69.8404 C-9.89406,-75.3694 -5.52903,-80.0254 -1.36231e-06,-80.0254 L135.607,-80.0254 C141.136,-80.0254 145.501,-75.3694 145.501,-69.8404 L145.501,31.1372 Z" fill="#a10049" fill-opacity="1" />
		
		
		

		<path d="M119.311,51.5073 C119.311,67.4181 106.412,80.3164 90.5015,80.3164 C74.5906,80.3164 61.6923,67.4181 61.6923,51.5073 C61.6923,35.5964 74.5906,22.6981 90.5015,22.6981 C106.412,22.6981 119.311,35.5964 119.311,51.5073 Z" fill="#273438" fill-opacity="1" />

		<path d="M108.835,51.5073 C108.835,61.6324 100.627,69.8404 90.5015,69.8404 C80.3764,69.8404 72.1684,61.6324 72.1684,51.5073 C72.1684,41.3822 80.3764,33.1742 90.5015,33.1742 C100.627,33.1742 108.835,41.3822 108.835,51.5073 Z" fill="#ededed" fill-opacity="1" />

	</g>
</svg>